PathFileType  4	(X/Y/Z) C:\Users\antoi\Documents\MyRepositories\mobilecap\ResultsAnalysis
DataRate	CameraRate	NumFrames	NumMarkers	Units	OrigDataRate	OrigDataStartFrame	OrigNumFrames
100.0	100.0	6	51	mm	100.0	712	1139
Frame#	Time	r_knee			r_shank_antsup			r_ankle			r_calc			r_5meta			r_toe			L_knee			L_shank_antsup			L_ankle			L_calc			L_5meta			L_toe			r_sh2			r_sh3			r_sh4			L_sh2			L_sh3			r_thigh1			r_thigh2			r_thigh3			r_thigh4			r_thigh5			L_thigh1			L_thigh2			L_thigh3			L_thigh4			r.ASIS			r.PSIS			L.ASIS			L.PSIS			C7			R_Shoulder			L_Shoulder			R_Sternum			L_Sternum			R_humerus			R_elbow_med			R_elbow_lat			R_forearm			R_wrist_radius			R_wrist_ulna			L_humerus			L_elbow_med			L_elbow_lat			L_forearm			L_wrist_radius			L_wrist_ulna			R_HJC			L_HJC			R_HJC_reg			L_HJC_reg			
		X1	Y1	Z1	X2	Y2	Z2	X3	Y3	Z3	X4	Y4	Z4	X5	Y5	Z5	X6	Y6	Z6	X7	Y7	Z7	X8	Y8	Z8	X9	Y9	Z9	X10	Y10	Z10	X11	Y11	Z11	X12	Y12	Z12	X13	Y13	Z13	X14	Y14	Z14	X15	Y15	Z15	X16	Y16	Z16	X17	Y17	Z17	X18	Y18	Z18	X19	Y19	Z19	X20	Y20	Z20	X21	Y21	Z21	X22	Y22	Z22	X23	Y23	Z23	X24	Y24	Z24	X25	Y25	Z25	X26	Y26	Z26	X27	Y27	Z27	X28	Y28	Z28	X29	Y29	Z29	X30	Y30	Z30	X31	Y31	Z31	X32	Y32	Z32	X33	Y33	Z33	X34	Y34	Z34	X35	Y35	Z35	X36	Y36	Z36	X37	Y37	Z37	X38	Y38	Z38	X39	Y39	Z39	X40	Y40	Z40	X41	Y41	Z41	X42	Y42	Z42	X43	Y43	Z43	X44	Y44	Z44	X45	Y45	Z45	X46	Y46	Z46	X47	Y47	Z47	X48	Y48	Z48	X49	Y49	Z49	X50	Y50	Z50	X51	Y51	Z51	

712	7.11000000	-186.29127	576.10941	-345.54493	-151.86928	439.14500	-325.46138	-301.94278	105.42565	-309.19804	-358.26601	72.26487	-371.18293	-174.11351	42.75480	-261.90780	-131.48347	70.41278	-309.30694	-196.68593	566.84462	-912.00634	-156.39801	379.03829	-920.05450	-315.79703	112.34189	-934.54146	-377.68578	73.71269	-877.85238	-182.28241	35.56850	-982.35629	-139.43915	66.17966	-924.24749	-181.89083	330.28194	-323.61454	-220.22705	455.37747	-299.72877	-253.04692	348.86863	-287.41502	-225.13778	412.01851	-964.52783	-266.64929	300.45682	-957.79336	-454.93191	682.34642	-385.05404	-346.85934	672.34473	-359.61617	-336.23341	605.75907	-344.22974	-471.60796	570.34195	-390.29096	-354.55023	555.14619	-366.95271	-453.39507	698.10200	-839.75858	-325.59729	675.50970	-876.25222	-486.17762	596.47727	-863.09998	-355.88205	574.81263	-907.75476	-489.65866	718.13522	-481.64104	-633.68377	798.76395	-581.97784	-474.17451	695.37752	-750.99332	-629.84001	796.54311	-669.20489	-180.70529	1016.38485	-613.17090	-138.00978	932.05257	-465.59678	-147.35671	963.81987	-766.39510	-135.47075	853.92375	-594.75483	-135.28074	853.27335	-645.00889	-105.69614	755.84554	-308.77969	-155.19050	616.44189	-246.98505	-126.50510	686.77102	-194.67828	3.11040	741.54291	-350.04136	52.09357	768.74180	-420.89486	73.76766	743.11796	-401.75065	-108.98924	751.70362	-903.94417	-178.87315	636.76005	-945.25690	-126.08962	686.28642	-993.49492	2.20483	747.31180	-848.67396	34.73999	773.89817	-785.70854	54.80819	752.08395	-805.85327	-587.23842	650.14363	-516.85043	-582.19248	641.50833	-714.07318	-576.52967	654.24063	-522.37513	-568.66502	649.69694	-700.84279	
713	7.12000000	-180.41283	575.23354	-345.31304	-147.62860	437.77351	-325.52534	-301.63105	105.65076	-309.26326	-358.02941	72.47431	-371.15754	-174.02093	42.64507	-261.62311	-131.31297	70.06252	-309.19764	-191.66301	565.64872	-911.69087	-153.42654	377.60587	-920.64931	-315.55052	112.42108	-934.61079	-377.54686	73.85852	-877.86122	-182.20226	35.44684	-982.59681	-139.28977	66.04226	-924.56935	-179.03143	329.27499	-323.64374	-215.72953	454.72824	-299.89030	-250.27405	349.18268	-287.25741	-221.78534	411.24743	-965.18443	-264.56527	300.11812	-958.20205	-447.48406	685.22615	-384.83027	-339.57782	673.56363	-359.59367	-329.63629	606.72437	-344.12319	-465.57976	572.96724	-390.05609	-348.74435	556.37530	-366.99404	-446.50145	700.53698	-839.65985	-319.13241	676.31362	-876.60180	-480.64345	599.27446	-862.63126	-350.78580	575.94286	-907.88892	-482.45923	721.77549	-481.14526	-626.22778	803.54927	-581.55540	-467.82555	698.55116	-750.77321	-622.52749	801.13682	-668.93594	-173.40171	1020.34515	-613.29090	-131.34276	935.71354	-465.05634	-140.26127	967.49992	-767.07731	-128.35745	857.66508	-594.53083	-128.13020	857.15418	-644.68831	-102.88488	759.59896	-307.07312	-155.11641	621.56913	-244.60828	-125.44654	691.63336	-192.49629	4.59563	744.05687	-348.15099	53.75200	770.38417	-419.18986	75.07834	744.63552	-400.11126	-106.79230	754.44086	-904.91361	-178.89774	640.60156	-945.79706	-125.45220	689.27413	-994.37871	3.34004	749.19924	-849.66535	36.25143	775.74264	-786.95873	55.96364	753.48464	-806.89683	-580.80128	654.61088	-516.28110	-576.19724	645.62558	-713.49950	-570.11556	658.54793	-521.69580	-562.55088	653.61535	-700.34148	
714	7.13000000	-174.30407	573.64962	-345.96975	-143.43021	436.36294	-325.95051	-301.08480	105.92126	-309.13992	-357.80379	72.70933	-370.98149	-173.84918	42.56696	-261.38030	-131.03019	69.91577	-308.96709	-186.84082	564.84312	-911.66414	-150.58496	376.28392	-921.26147	-315.30905	112.57578	-934.73708	-377.44900	74.14561	-878.07233	-182.16223	35.25458	-982.75318	-139.14042	65.91357	-924.84766	-176.18603	328.20951	-323.93358	-211.23958	454.01686	-300.51881	-247.53187	349.44314	-287.43185	-218.65687	410.62746	-965.77888	-262.66544	299.80784	-958.44069	-439.74026	688.08205	-385.13758	-332.15751	675.15048	-359.86307	-322.82564	607.68581	-344.70458	-459.60476	576.09783	-389.83759	-342.99686	558.07358	-366.81026	-439.45217	703.41296	-839.24360	-312.54336	677.52896	-876.79306	-475.06907	602.76755	-862.36006	-345.74988	577.59245	-908.03255	-475.75542	725.75810	-480.48421	-618.77738	808.91004	-580.83714	-461.69692	701.91774	-750.21603	-615.19751	806.30133	-668.38074	-166.37790	1025.04756	-613.44380	-124.87629	940.02917	-464.53967	-133.64123	971.69376	-767.36552	-121.45912	862.25744	-594.19443	-121.12424	861.82853	-644.43411	-100.68879	764.01822	-305.20341	-156.07785	627.53354	-241.99591	-125.13722	697.15191	-190.27575	5.47739	747.08413	-346.21086	54.52737	772.36498	-417.28154	75.76223	746.53990	-398.20645	-105.09101	757.88285	-905.95623	-179.55603	645.23035	-946.81987	-125.50168	692.98295	-995.28333	3.88078	751.58131	-850.66755	37.10198	777.93458	-788.15378	56.46581	755.28486	-807.91142	-574.85882	659.59089	-515.44909	-570.59349	650.22674	-712.65737	-564.16254	663.37640	-520.84594	-556.85408	658.05028	-699.57496	
715	7.14000000	-168.17596	571.91494	-347.13320	-139.30815	434.96414	-326.58100	-300.51395	106.23731	-309.21099	-357.51235	73.02416	-370.76862	-173.68752	42.56138	-261.22210	-130.61611	69.77236	-308.64367	-182.20242	564.26274	-911.97514	-147.90935	375.04543	-921.79066	-315.03643	112.80173	-934.84683	-377.33713	74.61456	-878.45724	-182.12556	35.07903	-982.92397	-139.02797	65.72135	-924.96179	-173.27435	327.09458	-324.43710	-206.86419	453.46457	-301.36235	-244.34370	349.01169	-288.02872	-215.84788	410.05828	-966.15246	-260.86840	299.58338	-958.53432	-431.92125	691.00733	-385.65910	-324.64482	676.70631	-360.49889	-316.11949	609.08033	-345.31233	-453.69290	579.75074	-389.66236	-337.24657	560.01121	-366.80531	-432.32438	706.62535	-838.64201	-305.93670	678.92879	-876.71342	-469.52220	606.68240	-862.05884	-340.80056	579.62570	-908.12293	-468.64809	730.18619	-479.95690	-611.40284	814.78092	-579.90526	-455.45242	706.00405	-749.39660	-607.90422	811.97672	-667.63750	-159.58215	1030.50920	-613.60892	-118.59349	945.03309	-464.14829	-127.96485	976.05814	-766.48479	-114.66990	867.79952	-593.98168	-114.29413	867.26275	-644.30749	-99.07091	769.07477	-303.18447	-158.00280	634.24053	-239.01364	-125.67548	703.57061	-187.98393	5.73534	750.70482	-344.13211	54.87920	774.85120	-415.24973	75.87956	748.82905	-396.00137	-103.86140	761.96112	-907.02799	-180.94263	650.62004	-947.82700	-126.27858	697.41326	-996.23550	3.89260	754.45972	-851.73805	37.32219	780.50587	-789.31614	56.35247	757.52391	-808.93645	-568.58757	665.01832	-514.52111	-564.81958	655.41118	-711.72752	-557.89066	668.80896	-520.11789	-550.77121	663.10304	-698.64257	
716	7.15000000	-162.49673	571.07434	-347.98123	-135.24492	433.65457	-327.42339	-300.18712	106.44998	-309.77648	-357.17422	73.42056	-370.70856	-173.57695	42.59834	-261.10601	-130.20471	69.37884	-308.43666	-177.69377	563.65445	-912.17783	-145.47027	373.82789	-922.03327	-314.73779	113.06451	-934.87968	-377.14829	75.05522	-878.71332	-182.07291	34.92384	-983.05397	-138.95520	65.43838	-924.96357	-170.34278	326.14327	-325.06255	-202.60212	453.04869	-302.28874	-240.94856	348.33557	-288.81038	-213.27101	409.55996	-966.23837	-259.14446	299.47536	-958.58071	-424.48185	695.19631	-385.85114	-317.01466	678.08262	-361.36471	-309.65712	610.95405	-345.60205	-447.83317	583.71575	-389.62310	-331.61512	562.22329	-366.93439	-425.24686	710.10143	-837.99727	-299.38365	680.37574	-876.40973	-464.06552	610.76702	-861.53355	-335.95137	581.85556	-907.96213	-461.03638	735.05347	-479.41156	-604.16579	821.20323	-579.07743	-449.04140	710.78865	-748.46303	-600.66255	818.15864	-666.99136	-153.02926	1036.74425	-613.85989	-112.49014	950.76933	-463.83397	-122.25913	981.27272	-766.09633	-107.92368	874.20607	-594.07608	-107.62413	873.46859	-644.27550	-98.00634	774.76904	-301.17312	-160.73488	641.85534	-236.03504	-127.07486	710.96245	-185.69634	5.39014	754.96594	-341.78789	55.10635	777.89495	-413.05091	75.43963	751.47945	-393.59752	-103.18249	766.62100	-908.02632	-183.19633	656.89292	-948.46592	-127.76953	702.58692	-997.26597	3.31114	757.80503	-852.78243	37.02282	783.50906	-790.55044	55.67483	760.18113	-810.03629	-562.00581	670.93723	-513.61594	-558.79301	661.13077	-710.82250	-551.34021	674.80422	-519.43984	-544.23845	668.63259	-697.66174	
717	7.16000000	-157.14191	570.83759	-348.73853	-131.26524	432.43645	-328.56468	-300.03315	106.56682	-310.45826	-356.88689	73.86567	-370.77381	-173.41209	42.63926	-260.98412	-129.84558	68.83642	-308.34106	-173.33318	563.02959	-912.09858	-143.17912	372.69801	-922.05095	-314.39666	113.34177	-934.86717	-376.88136	75.30843	-878.62059	-182.02038	34.79971	-983.16012	-138.88603	65.11917	-925.03014	-167.44422	325.44898	-325.86155	-198.46535	452.64887	-303.33146	-237.62095	347.99212	-289.74965	-210.77587	409.13158	-966.06960	-257.50986	299.44732	-958.50187	-416.90886	699.06896	-385.81931	-309.36167	679.67871	-362.23890	-303.28199	612.90992	-346.11425	-441.99038	587.86683	-389.82294	-326.12228	564.59030	-367.32310	-418.26034	713.73804	-837.33632	-292.97695	681.96435	-876.22431	-458.73430	615.03943	-860.88860	-331.21195	584.15617	-907.56678	-453.30723	740.32752	-478.69898	-597.09020	828.15136	-578.49681	-442.54563	716.25097	-747.56483	-593.49419	824.88437	-666.51984	-146.75572	1043.70638	-614.19858	-106.53431	957.27466	-463.42372	-115.52643	987.99446	-767.72777	-101.35445	881.24974	-594.21546	-101.09211	880.47577	-644.26855	-97.53850	781.17372	-299.21423	-164.21434	650.56836	-233.54457	-129.23109	719.15303	-183.44777	4.49699	759.77492	-339.29068	54.93774	781.36048	-410.67709	74.48244	754.47849	-391.10621	-103.07816	771.96621	-909.03616	-186.19166	664.15879	-948.91063	-129.91688	708.50489	-998.31335	2.15532	761.60981	-853.81746	36.25318	786.90790	-791.76448	54.50523	763.21658	-811.20477	-555.42650	677.33066	-512.84438	-552.62913	667.40927	-710.05152	-544.81153	681.23599	-518.74618	-537.53837	674.62847	-696.77816	
